<svg width="130" height="53" viewBox="0 0 130 53" fill="currentcolor" xmlns="http://www.w3.org/2000/svg">
<title>Convivial for Gov</title>
<g clip-path="url(#clip0_11588_17590)">
<path d="M81.7158 35.4801C81.9315 35.2653 82.2406 35.1578 82.6433 35.1578C82.8647 35.1578 83.0445 35.1936 83.1854 35.2638C83.3263 35.334 83.4572 35.4285 83.578 35.5488L84.6478 34.4833C84.3761 34.2026 84.0856 33.9878 83.7735 33.8375C83.4615 33.6871 83.0847 33.6126 82.6433 33.6126C82.071 33.6126 81.5648 33.7329 81.1291 33.9721C80.6919 34.2127 80.3497 34.5435 80.1038 34.9631C79.8579 35.3841 79.7342 35.8696 79.7342 36.4195V37.3647H78V38.8655H79.7342V44.5695H81.3922V38.8655H83.578V37.3647H81.3922V36.4038C81.3922 36.0042 81.5001 35.6963 81.7158 35.4801Z" fill="var(--foreground)" style="fill:var(--foreground);"/>
<path d="M90.059 37.7098C89.4867 37.379 88.8425 37.2143 88.1292 37.2143C87.416 37.2143 86.7876 37.3819 86.2153 37.717C85.643 38.0521 85.1871 38.5004 84.8506 39.0603C84.5141 39.6202 84.3459 40.2518 84.3459 40.9521C84.3459 41.6524 84.5141 42.2882 84.8506 42.8582C85.1871 43.4296 85.6415 43.8821 86.2153 44.2172C86.7876 44.5523 87.4261 44.7199 88.1292 44.7199C88.8324 44.7199 89.4853 44.5523 90.059 44.2172C90.6314 43.8821 91.0872 43.4296 91.4237 42.8582C91.7602 42.2882 91.9284 41.6524 91.9284 40.9521C91.9284 40.2518 91.7602 39.6188 91.4237 39.0531C91.0872 38.4875 90.6328 38.0407 90.059 37.7098ZM89.9612 42.0777C89.7858 42.4085 89.5385 42.6663 89.2221 42.851C88.9058 43.0358 88.542 43.1288 88.1292 43.1288C87.7165 43.1288 87.3685 43.0358 87.0508 42.851C86.7344 42.6663 86.4885 42.4085 86.3131 42.0777C86.1376 41.7483 86.0499 41.3717 86.0499 40.9521C86.0499 40.5325 86.1376 40.1616 86.3131 39.8408C86.4885 39.5214 86.7344 39.2679 87.0508 39.0832C87.3671 38.8985 87.7266 38.8054 88.1292 38.8054C88.5319 38.8054 88.9029 38.8985 89.2149 39.0832C89.527 39.2679 89.7729 39.5214 89.9541 39.8408C90.1352 40.1616 90.2258 40.531 90.2258 40.9521C90.2258 41.3731 90.1381 41.7483 89.9627 42.0777H89.9612Z" fill="var(--foreground)" style="fill:var(--foreground);"/>
<path d="M97.8213 37.4091C97.5294 37.2788 97.2029 37.2143 96.842 37.2143C96.018 37.2143 95.4026 37.4965 94.9956 38.0621C94.9827 38.0808 94.9712 38.1008 94.9582 38.1208V37.3647H93.3002V44.5695H94.9582V40.5626C94.9582 39.9425 95.1092 39.4871 95.4098 39.1963C95.7117 38.9056 96.0928 38.761 96.5559 38.761C96.7672 38.761 96.9527 38.7911 97.1138 38.8512C97.2748 38.9114 97.4201 39.0116 97.5509 39.152L98.6366 38.0407C98.385 37.7499 98.1146 37.5409 97.8227 37.4105L97.8213 37.4091Z" fill="var(--foreground)" style="fill:var(--foreground);"/>
<path d="M107.647 40.4566H111.012C110.949 40.8647 110.832 41.2285 110.663 41.545C110.391 42.0505 110.001 42.43 109.495 42.6849C108.987 42.9398 108.382 43.0673 107.679 43.0673C107.016 43.0673 106.422 42.9069 105.9 42.5875C105.378 42.2667 104.962 41.8242 104.656 41.2585C104.35 40.6929 104.196 40.0398 104.196 39.2995C104.196 38.5591 104.347 37.9089 104.647 37.3475C104.949 36.7876 105.374 36.3494 105.922 36.0343C106.469 35.7192 107.105 35.5617 107.828 35.5617C108.431 35.5617 108.993 35.6791 109.517 35.914C110.039 36.1489 110.456 36.4868 110.768 36.9265L111.944 35.755C111.462 35.165 110.864 34.7096 110.151 34.3888C109.437 34.068 108.664 33.9077 107.83 33.9077C107.066 33.9077 106.354 34.0451 105.697 34.3201C105.039 34.5951 104.466 34.9803 103.979 35.4758C103.491 35.9713 103.109 36.5441 102.833 37.1943C102.557 37.8445 102.419 38.5447 102.419 39.2952C102.419 40.0456 102.557 40.7487 102.833 41.4046C103.109 42.0605 103.488 42.6348 103.97 43.1303C104.452 43.6258 105.016 44.0139 105.658 44.2931C106.301 44.5738 106.984 44.7142 107.708 44.7142C108.703 44.7142 109.586 44.5094 110.361 44.0984C111.134 43.6888 111.744 43.0673 112.193 42.2367C112.64 41.4061 112.864 40.3664 112.864 39.1147V38.8741H107.649V40.4509L107.647 40.4566Z" fill="var(--foreground)" style="fill:var(--foreground);"/>
<path d="M119.6 37.7098C119.027 37.379 118.383 37.2143 117.67 37.2143C116.957 37.2143 116.328 37.3819 115.756 37.717C115.184 38.0521 114.728 38.5004 114.391 39.0603C114.055 39.6202 113.887 40.2518 113.887 40.9521C113.887 41.6524 114.055 42.2882 114.391 42.8582C114.728 43.4296 115.182 43.8821 115.756 44.2172C116.328 44.5523 116.967 44.7199 117.67 44.7199C118.373 44.7199 119.026 44.5523 119.6 44.2172C120.172 43.8821 120.628 43.4296 120.964 42.8582C121.301 42.2882 121.469 41.6524 121.469 40.9521C121.469 40.2518 121.301 39.6188 120.964 39.0531C120.628 38.4875 120.173 38.0407 119.6 37.7098ZM119.502 42.0777C119.326 42.4085 119.079 42.6663 118.763 42.851C118.446 43.0358 118.083 43.1288 117.67 43.1288C117.257 43.1288 116.909 43.0358 116.591 42.851C116.275 42.6663 116.029 42.4085 115.854 42.0777C115.678 41.7483 115.591 41.3717 115.591 40.9521C115.591 40.5325 115.678 40.1616 115.854 39.8408C116.029 39.5214 116.275 39.2679 116.591 39.0832C116.908 38.8985 117.267 38.8054 117.67 38.8054C118.073 38.8054 118.444 38.8985 118.756 39.0832C119.068 39.2679 119.314 39.5214 119.495 39.8408C119.676 40.1616 119.766 40.531 119.766 40.9521C119.766 41.3731 119.679 41.7483 119.503 42.0777H119.502Z" fill="var(--foreground)" style="fill:var(--foreground);"/>
<path d="M125.796 41.9717L123.82 37.3647H121.981L125.281 44.5695H126.246L129.548 37.3647H127.783L125.796 41.9717Z" fill="var(--foreground)" style="fill:var(--foreground);"/>
<path d="M26.5939 24.8125C26.1568 24.9986 25.6578 25.0903 25.0998 25.0903C24.5419 25.0903 23.9911 24.9557 23.508 24.6879C23.0248 24.4187 22.6466 24.0434 22.3777 23.5623C22.1074 23.0811 21.9722 22.524 21.9722 21.8939C21.9722 21.2638 22.1074 20.7396 22.3777 20.267C22.6466 19.7945 23.0205 19.4235 23.495 19.1543C23.9696 18.8851 24.5045 18.7505 25.0998 18.7505C25.6391 18.7505 26.1194 18.835 26.5378 19.0011C26.9563 19.1672 27.3244 19.4278 27.6408 19.7787L30.4046 16.9976C29.7158 16.293 28.9292 15.7603 28.0448 15.3994C27.1605 15.0385 26.1783 14.8566 25.0998 14.8566C23.6848 14.8566 22.4093 15.1631 21.2748 15.7746C20.1388 16.3861 19.2458 17.2253 18.5943 18.2908C17.9429 19.3562 17.618 20.5663 17.618 21.9197C17.618 23.273 17.9386 24.4602 18.5814 25.5342C19.2242 26.6097 20.1114 27.4532 21.2474 28.0647C22.382 28.6762 23.6575 28.9827 25.0725 28.9827C26.1898 28.9827 27.1892 28.7937 28.0736 28.4127C28.958 28.0332 29.7632 27.4733 30.4894 26.7315L27.7256 24.0062C27.4092 24.3585 27.0325 24.6277 26.5953 24.8125H26.5939Z" fill="var(--foreground)" style="fill:var(--foreground);"/>
<path d="M42.6764 15.776C41.5505 15.1645 40.2894 14.8581 38.8931 14.8581C37.4968 14.8581 36.1839 15.1688 35.068 15.7903C33.9507 16.4119 33.0721 17.2496 32.4293 18.3065C31.7865 19.3634 31.4659 20.5492 31.4659 21.8652C31.4659 23.1813 31.7908 24.4043 32.4422 25.4798C33.0937 26.5553 33.978 27.4074 35.0953 28.0375C36.2127 28.6677 37.4781 28.9827 38.8931 28.9827C40.3081 28.9827 41.5735 28.6677 42.6894 28.0375C43.8067 27.4074 44.6896 26.5596 45.3425 25.4942C45.9939 24.4287 46.3189 23.2186 46.3189 21.8652C46.3189 20.5119 45.9925 19.3577 45.3425 18.2922C44.6896 17.2267 43.8024 16.3875 42.6764 15.776ZM41.5591 23.5752C41.3075 24.0664 40.9494 24.4416 40.4849 24.7008C40.019 24.9614 39.4884 25.0903 38.8931 25.0903C38.2978 25.0903 37.7671 24.9614 37.3012 24.7008C36.8353 24.4416 36.4729 24.0664 36.2127 23.5752C35.951 23.084 35.8215 22.5226 35.8215 21.8925C35.8215 21.2996 35.951 20.7625 36.2127 20.2799C36.4729 19.7987 36.8368 19.4221 37.3012 19.1543C37.7657 18.8865 38.2963 18.7505 38.8931 18.7505C39.4899 18.7505 40.0147 18.8851 40.4706 19.1543C40.9264 19.4235 41.2845 19.7945 41.5462 20.267C41.8065 20.7396 41.9373 21.2824 41.9373 21.8939C41.9373 22.5054 41.8122 23.0854 41.5606 23.5766L41.5591 23.5752Z" fill="var(--foreground)" style="fill:var(--foreground);"/>
<path d="M59.1904 15.5813C58.4095 15.1173 57.5237 14.8853 56.5387 14.8853C55.4961 14.8853 54.5615 15.1029 53.7317 15.5383C53.3535 15.7374 53.0171 15.9779 52.7122 16.2529V15.1631H48.4126V28.6762H52.7122V20.9745C52.7122 20.5105 52.8143 20.1038 53.0185 19.7515C53.2227 19.3992 53.5017 19.1257 53.8568 18.9309C54.2106 18.7361 54.6103 18.6388 55.0576 18.6388C55.7277 18.6388 56.2856 18.8564 56.7328 19.2918C57.18 19.7271 57.4029 20.2885 57.4029 20.9731V28.6748H61.7025V20.0264C61.7025 19.0999 61.4796 18.2435 61.0324 17.4544C60.5852 16.6668 59.9712 16.041 59.1889 15.5784L59.1904 15.5813Z" fill="var(--foreground)" style="fill:var(--foreground);"/>
<path d="M70.4326 23.4792L67.5393 15.1645H62.9033L68.6552 28.6777H72.1179L77.8972 15.1645H73.346L70.4326 23.4792Z" fill="var(--foreground)" style="fill:var(--foreground);"/>
<path d="M83.7038 15.1645H79.4042V28.6777H83.7038V15.1645Z" fill="var(--foreground)" style="fill:var(--foreground);"/>
<path d="M81.554 8.62992C80.9026 8.62992 80.3533 8.85189 79.9061 9.29727C79.4588 9.74265 79.236 10.2983 79.236 10.9657C79.236 11.633 79.4588 12.1715 79.9061 12.634C80.3533 13.0966 80.9026 13.3286 81.554 13.3286C82.2428 13.3286 82.7964 13.0966 83.2149 12.634C83.6333 12.17 83.8433 11.6144 83.8433 10.9657C83.8433 10.3169 83.6333 9.74265 83.2149 9.29727C82.7964 8.85189 82.2428 8.62992 81.554 8.62992Z" fill="var(--foreground)" style="fill:var(--foreground);"/>
<path d="M92.7114 23.4792L89.8182 15.1645H85.1835L90.9355 28.6777H94.3968L100.176 15.1645H95.6262L92.7114 23.4792Z" fill="var(--foreground)" style="fill:var(--foreground);"/>
<path d="M105.983 15.1645H101.683V28.6777H105.983V15.1645Z" fill="var(--foreground)" style="fill:var(--foreground);"/>
<path d="M103.833 8.62992C103.181 8.62992 102.632 8.85189 102.185 9.29727C101.738 9.74265 101.515 10.2983 101.515 10.9657C101.515 11.633 101.738 12.1715 102.185 12.634C102.632 13.0966 103.181 13.3286 103.833 13.3286C104.522 13.3286 105.075 13.0966 105.494 12.634C105.912 12.17 106.122 11.6144 106.122 10.9657C106.122 10.3169 105.912 9.74265 105.494 9.29727C105.075 8.85189 104.522 8.62992 103.833 8.62992Z" fill="var(--foreground)" style="fill:var(--foreground);"/>
<path d="M118.352 16.2916C117.986 15.9436 117.566 15.6471 117.081 15.4151C116.346 15.0628 115.522 14.8867 114.611 14.8867C113.364 14.8867 112.252 15.1889 111.274 15.7903C110.298 16.3932 109.524 17.2267 108.956 18.2936C108.388 19.3591 108.105 20.5692 108.105 21.9225C108.105 23.2758 108.388 24.4759 108.956 25.5242C109.524 26.5711 110.301 27.406 111.289 28.0261C112.275 28.6476 113.383 28.9584 114.611 28.9584C115.541 28.9584 116.375 28.7822 117.11 28.4299C117.584 28.2037 117.994 27.9129 118.352 27.5735V28.6791H122.567V15.1645H118.352V16.2901V16.2916ZM115.505 25.0917C114.928 25.0917 114.411 24.9571 113.955 24.6893C113.498 24.4201 113.135 24.0449 112.866 23.5637C112.596 23.0825 112.461 22.5355 112.461 21.9225C112.461 21.3096 112.596 20.764 112.866 20.2828C113.137 19.8016 113.499 19.425 113.955 19.1572C114.411 18.8879 114.927 18.7533 115.505 18.7533C116.083 18.7533 116.631 18.8879 117.097 19.1572C117.563 19.4264 117.917 19.7973 118.158 20.2699C118.4 20.7425 118.522 21.2853 118.522 21.8968C118.522 22.8419 118.246 23.611 117.698 24.2053C117.149 24.7982 116.418 25.0946 115.506 25.0946L115.505 25.0917Z" fill="var(--foreground)" style="fill:var(--foreground);"/>
<path d="M129.855 8.491H125.555V28.6777H129.855V8.491Z" fill="var(--foreground)" style="fill:var(--foreground);"/>
<path d="M12.8582 32.4369C6.47496 25.961 5.56328 16.1684 10.0699 8.74448C8.80307 9.50922 7.60235 10.4258 6.49797 11.5041C-1.20392 19.034 -1.31752 31.3557 6.24201 39.0245C13.803 46.6947 26.1755 46.8093 33.8759 39.2794C35.0752 38.108 36.089 36.8191 36.9202 35.4514C29.3419 40.0284 19.3349 39.0087 12.8568 32.4369H12.8582Z" fill="var(--highlight)" style="fill:var(--highlight);"/>
</g>
<defs>
<clipPath id="clip0_11588_17590">
<rect width="130" height="37" fill="white" style="fill:white;fill-opacity:1;" transform="translate(0 8)"/>
</clipPath>
</defs>
</svg>