<svg width="181" height="25" viewBox="0 0 181 25" fill="currentcolor" xmlns="http://www.w3.org/2000/svg">
<title>Convivial Gov</title>
<g clip-path="url(#clip0_10068_15759)">
<g clip-path="url(#clip1_10068_15759)">
<path d="M53.1379 15.5696C52.5563 15.8085 51.8734 15.9279 51.0884 15.9279C50.4197 15.9279 49.8093 15.8158 49.2571 15.5913C48.7045 15.367 48.2249 15.0414 47.8182 14.6144C47.4111 14.1875 47.0987 13.6807 46.8808 13.0946C46.6626 12.5084 46.5537 11.8537 46.5537 11.1298C46.5537 10.435 46.6626 9.79127 46.8808 9.19758C47.0987 8.60421 47.4111 8.09778 47.8182 7.67782C48.2249 7.25818 48.7045 6.93615 49.2571 6.71173C49.8093 6.48747 50.4197 6.3751 51.0884 6.3751C51.844 6.3751 52.509 6.4983 53.0832 6.74437C53.6573 6.99045 54.1407 7.33037 54.5331 7.76461L56.844 5.44165C56.1317 4.7615 55.2995 4.22604 54.3476 3.83527C53.3956 3.4445 52.3092 3.24911 51.0883 3.24911C49.9253 3.24911 48.8571 3.44827 47.8834 3.84625C46.9094 4.2444 46.0554 4.79791 45.3216 5.50694C44.5877 6.21629 44.017 7.05212 43.6102 8.01445C43.2031 8.97724 42.9998 10.0155 42.9998 11.1299C42.9998 12.2443 43.2031 13.2829 43.6102 14.2452C44.017 15.208 44.5877 16.0509 45.3216 16.7744C46.0554 17.4982 46.9132 18.0591 47.8943 18.4569C48.8754 18.8549 49.9398 19.054 51.0883 19.054C52.3527 19.054 53.4646 18.862 54.4239 18.4787C55.3832 18.0955 56.2261 17.5561 56.9529 16.8613L54.6201 14.5384C54.213 14.9871 53.7188 15.3308 53.1377 15.5695L53.1379 15.5696Z" fill="var(--foreground)" style="fill:var(--foreground);fill-opacity:1;"/>
<path d="M66.5785 8.742C65.6989 8.26429 64.7146 8.02559 63.6244 8.02559C62.505 8.02559 61.5096 8.26821 60.6376 8.75298C59.7656 9.23807 59.0787 9.8928 58.5774 10.7177C58.0759 11.5427 57.8253 12.469 57.8253 13.4965C57.8253 14.5387 58.0794 15.4797 58.5884 16.3187C59.097 17.1583 59.7875 17.8241 60.6596 18.3161C61.5316 18.8083 62.52 19.0542 63.6246 19.0542C64.7292 19.0542 65.7175 18.8083 66.5896 18.3161C67.4616 17.8241 68.1517 17.162 68.6608 16.3297C69.1695 15.4976 69.4239 14.5533 69.4239 13.4965C69.4239 12.469 69.1695 11.5392 68.6608 10.707C68.1519 9.87475 67.4579 9.21971 66.5787 8.74215L66.5785 8.742ZM65.7065 14.8315C65.5103 15.2151 65.2304 15.5083 64.8671 15.7109C64.5037 15.9138 64.0894 16.0148 63.6244 16.0148C63.1595 16.0148 62.7449 15.9138 62.3817 15.7109C62.0182 15.5084 61.7348 15.2153 61.5313 14.8315C61.3275 14.4483 61.2261 14.0105 61.2261 13.5182C61.2261 13.0552 61.3275 12.6356 61.5313 12.2591C61.7346 11.8829 62.0182 11.5897 62.3817 11.3798C62.7449 11.1701 63.159 11.065 63.6244 11.065C64.0898 11.065 64.4999 11.1701 64.8561 11.3798C65.2121 11.5897 65.4919 11.8791 65.6955 12.2481C65.8988 12.6172 66.0008 13.0406 66.0008 13.5182C66.0008 14.0105 65.9027 14.4483 65.7065 14.8315Z" fill="var(--foreground)" style="fill:var(--foreground);fill-opacity:1;"/>
<path d="M79.4743 8.58993C78.8637 8.22835 78.1733 8.04725 77.4031 8.04725C76.5889 8.04725 75.8584 8.21752 75.2119 8.55744C74.9175 8.71234 74.6534 8.89784 74.4162 9.11111V8.26429H71.0587V18.8152H74.4162V12.8016C74.4162 12.44 74.496 12.1216 74.6559 11.8465C74.8157 11.5717 75.0337 11.358 75.31 11.206C75.5859 11.054 75.8984 10.978 76.2474 10.978C76.7706 10.978 77.2067 11.1483 77.5555 11.4882C77.9044 11.8284 78.0787 12.2664 78.0787 12.8016V18.8152H81.4363V12.0635C81.4363 11.3401 81.2618 10.6707 80.913 10.0554C80.5643 9.44036 80.0847 8.95198 79.4743 8.58993Z" fill="var(--foreground)" style="fill:var(--foreground);fill-opacity:1;"/>
<path d="M88.2521 14.7565L85.9927 8.26429H82.3735L86.8647 18.8153H89.5681L94.0811 8.26429H90.5274L88.2521 14.7565Z" fill="var(--foreground)" style="fill:var(--foreground);fill-opacity:1;"/>
<path d="M98.6158 8.26429H95.2582V18.8152H98.6158V8.26429Z" fill="var(--foreground)" style="fill:var(--foreground);fill-opacity:1;"/>
<path d="M96.9369 3.16264C96.428 3.16264 95.9995 3.33621 95.6505 3.68351C95.3017 4.03097 95.1274 4.46505 95.1274 4.98623C95.1274 5.49297 95.3017 5.92705 95.6505 6.28879C95.9995 6.65068 96.428 6.83147 96.9369 6.83147C97.4743 6.83147 97.9071 6.65068 98.2339 6.28879C98.5611 5.92705 98.7245 5.49297 98.7245 4.98623C98.7245 4.4652 98.5611 4.03097 98.2339 3.68351C97.9071 3.33621 97.4743 3.16264 96.9369 3.16264Z" fill="var(--foreground)" style="fill:var(--foreground);fill-opacity:1;"/>
<path d="M105.649 14.7567L103.39 8.26429H99.7711L104.262 18.8153H106.966L111.479 8.26429H107.925L105.649 14.7567Z" fill="var(--foreground)" style="fill:var(--foreground);fill-opacity:1;"/>
<path d="M114.334 3.16264C113.825 3.16264 113.397 3.33621 113.048 3.68351C112.699 4.03097 112.525 4.46505 112.525 4.98623C112.525 5.49297 112.699 5.92705 113.048 6.28879C113.397 6.65068 113.825 6.83147 114.334 6.83147C114.872 6.83147 115.304 6.65068 115.631 6.28879C115.958 5.92705 116.122 5.49297 116.122 4.98623C116.122 4.4652 115.958 4.03097 115.631 3.68351C115.304 3.33621 114.872 3.16264 114.334 3.16264Z" fill="var(--foreground)" style="fill:var(--foreground);fill-opacity:1;"/>
<path d="M116.013 8.26429H112.656V18.8152H116.013V8.26429Z" fill="var(--foreground)" style="fill:var(--foreground);fill-opacity:1;"/>
<path d="M125.671 9.13654C125.385 8.8663 125.055 8.64 124.679 8.45983C124.105 8.1852 123.462 8.04741 122.75 8.04741C121.776 8.04741 120.907 8.28281 120.144 8.75299C119.381 9.22348 118.778 9.8746 118.335 10.7068C117.891 11.5392 117.67 12.4835 117.67 13.54C117.67 14.5965 117.891 15.5338 118.335 16.3513C118.778 17.1691 119.385 17.8204 120.155 18.3052C120.926 18.7902 121.791 19.0324 122.75 19.0324C123.476 19.0324 124.127 18.8948 124.701 18.62C125.069 18.4436 125.393 18.2232 125.671 17.9604V18.8155H128.963V8.26429H125.671V9.13638L125.671 9.13654ZM123.447 16.0147C122.996 16.0147 122.593 15.9099 122.237 15.6999C121.881 15.4902 121.597 15.1972 121.387 14.8206C121.176 14.4446 121.071 14.0174 121.071 13.5398C121.071 13.0623 121.176 12.6354 121.387 12.2589C121.597 11.8827 121.881 11.5896 122.237 11.3796C122.593 11.1699 122.996 11.0648 123.447 11.0648C123.912 11.0648 124.326 11.1699 124.69 11.3796C125.053 11.5896 125.329 11.879 125.518 12.2479C125.707 12.617 125.802 13.0405 125.802 13.518C125.802 14.2561 125.587 14.8568 125.159 15.3198C124.73 15.7832 124.159 16.0145 123.447 16.0145L123.447 16.0147Z" fill="var(--foreground)" style="fill:var(--foreground);fill-opacity:1;"/>
<path d="M134.653 3.05405H131.296V18.8153H134.653V3.05405Z" fill="var(--foreground)" style="fill:var(--foreground);fill-opacity:1;"/>
<path d="M148.475 12.4543H154.072C154.002 13.3702 153.788 14.1748 153.424 14.864C152.973 15.7181 152.341 16.3694 151.527 16.8177C150.713 17.2666 149.747 17.4908 148.628 17.4908C147.509 17.4908 146.509 17.2269 145.63 16.6983C144.75 16.1702 144.06 15.443 143.559 14.5166C143.057 13.5907 142.807 12.5339 142.807 11.347C142.807 10.1459 143.057 9.08208 143.559 8.15569C144.06 7.22978 144.761 6.50238 145.663 5.97398C146.564 5.4459 147.596 5.18146 148.759 5.18146C149.747 5.18146 150.652 5.38077 151.473 5.7786C152.294 6.17674 152.959 6.75207 153.468 7.50457L154.601 6.37558C153.933 5.50726 153.093 4.83432 152.083 4.35677C151.073 3.87906 149.965 3.64036 148.758 3.64036C147.668 3.64036 146.662 3.83574 145.739 4.22651C144.816 4.61712 144.009 5.16373 143.319 5.86554C142.629 6.56767 142.091 7.38169 141.706 8.30776C141.32 9.23399 141.128 10.2399 141.128 11.3255C141.128 12.411 141.32 13.4204 141.706 14.354C142.091 15.2874 142.621 16.1016 143.297 16.7962C143.973 17.491 144.772 18.0374 145.695 18.4353C146.618 18.8331 147.61 19.0322 148.671 19.0322C150.067 19.0322 151.299 18.7358 152.367 18.1421C153.435 17.5489 154.271 16.6696 154.874 15.5043C155.477 14.3396 155.779 12.9176 155.779 11.2384V10.9997H148.475V12.4543H148.475Z" fill="var(--foreground)" style="fill:var(--foreground);fill-opacity:1;"/>
<path d="M165.709 9.0893C164.903 8.62634 164.005 8.39455 163.017 8.39455C162.014 8.39455 161.112 8.62995 160.313 9.10013C159.514 9.57062 158.878 10.2039 158.406 10.9997C157.933 11.7958 157.697 12.6859 157.697 13.6701C157.697 14.6687 157.933 15.5734 158.406 16.3836C158.878 17.1944 159.514 17.8383 160.313 18.3158C161.112 18.7934 162.014 19.0321 163.017 19.0321C164.005 19.0321 164.903 18.7934 165.709 18.3158C166.516 17.8381 167.155 17.1977 167.628 16.3945C168.1 15.5913 168.336 14.6832 168.336 13.6701C168.336 12.6859 168.1 11.792 167.628 10.9888C167.155 10.1856 166.516 9.55273 165.709 9.0893ZM166.265 15.6674C165.945 16.2609 165.502 16.7239 164.935 17.0569C164.368 17.3899 163.729 17.5563 163.017 17.5563C162.305 17.5563 161.665 17.3899 161.098 17.0569C160.531 16.724 160.088 16.2644 159.768 15.6784C159.448 15.0922 159.289 14.4229 159.289 13.6702C159.289 12.9466 159.448 12.2991 159.768 11.7271C160.088 11.1555 160.531 10.7034 161.098 10.3702C161.665 10.0375 162.304 9.87083 163.017 9.87083C163.729 9.87083 164.365 10.0375 164.924 10.3702C165.484 10.7032 165.927 11.1555 166.254 11.7271C166.581 12.2991 166.745 12.9466 166.745 13.6702C166.745 14.4083 166.584 15.0742 166.265 15.6675L166.265 15.6674Z" fill="var(--foreground)" style="fill:var(--foreground);fill-opacity:1;"/>
<path d="M178.343 8.61175L174.803 16.4433L171.301 8.61175H169.579L174.332 18.8154H175.225L180 8.61175H178.343Z" fill="var(--foreground)" style="fill:var(--foreground);fill-opacity:1;"/>
</g>
<path d="M33.3467 15.9756C32.4781 15.9756 31.7713 15.2691 31.7713 14.4006C31.7713 13.5322 32.4781 12.8256 33.3467 12.8256C34.2154 12.8256 34.9222 13.5322 34.9222 14.4006C34.9222 15.2691 34.2154 15.9756 33.3467 15.9756Z" fill="var(--highlight)" style="fill:var(--highlight);fill-opacity:1;"/>
<path d="M1.76216 19.8507C0.790502 19.8507 0 19.0603 0 18.0889C0 17.1175 0.790502 16.3272 1.76216 16.3272C2.73381 16.3272 3.52431 17.1175 3.52431 18.0889C3.52431 19.0603 2.73381 19.8507 1.76216 19.8507Z" fill="var(--highlight)" style="fill:var(--highlight);fill-opacity:1;"/>
<path d="M8.77489 1.76931C8.32794 1.76931 7.96432 1.40587 7.96432 0.959033C7.96432 0.512192 8.32794 0.148659 8.77489 0.148659C9.22185 0.148659 9.58547 0.512192 9.58547 0.959033C9.58547 1.40587 9.22185 1.76931 8.77489 1.76931Z" fill="var(--highlight)" style="fill:var(--highlight);fill-opacity:1;"/>
<path d="M17.136 24.9686C16.2849 24.9686 15.4697 24.702 14.7787 24.1976C14.0645 23.6762 13.5718 22.9816 13.3142 22.1332C13.2317 21.8614 13.1776 21.5834 13.1534 21.3069C12.9963 19.5198 11.6832 18.0485 9.92507 17.6898C8.96558 17.4939 8.04724 17.0903 7.26962 16.5226C6.08001 15.6542 5.22443 14.4482 4.79542 13.035C3.71469 9.47445 5.73281 5.69854 9.29423 4.61788C9.93399 4.4239 10.5943 4.32539 11.2568 4.32539C12.2198 4.32539 13.2022 4.5441 14.0976 4.9578C14.6464 5.21147 15.2253 5.33248 15.7967 5.33248C17.173 5.33248 18.5046 4.63004 19.2622 3.38651C20.1261 1.96825 21.4747 0.922242 23.0598 0.441146C23.6994 0.247167 24.3598 0.148659 25.0223 0.148659C26.4394 0.148659 27.8538 0.61131 29.0046 1.45138C30.1942 2.31972 31.0498 3.52576 31.4788 4.93885C32.0023 6.66358 31.8227 8.48884 30.973 10.0787C30.659 10.6663 30.2669 11.1992 29.8074 11.6625C28.5442 12.9369 28.2691 14.8899 29.1312 16.4635C29.2635 16.705 29.3722 16.9648 29.4546 17.2361C30.0943 19.3435 28.8997 21.5785 26.7916 22.2181C26.4129 22.333 26.022 22.3913 25.6299 22.3913C25.2378 22.3913 24.8567 22.3362 24.4916 22.2276C24.11 22.1141 23.7207 22.0591 23.3354 22.0591C22.1454 22.0591 20.9919 22.5837 20.2089 23.5313C19.7154 24.1286 19.0545 24.5656 18.2973 24.7954C17.9188 24.9103 17.5278 24.9685 17.1358 24.9685L17.136 24.9686Z" fill="var(--highlight)" style="fill:var(--highlight);fill-opacity:1;"/>
</g>
</svg>
